<?xml version="1.0" encoding="UTF-8" standalone="no"?>
<svg width="55px" height="48px" viewBox="0 0 55 48" version="1.1" xmlns="http://www.w3.org/2000/svg" xmlns:xlink="http://www.w3.org/1999/xlink">
    <!-- Generator: Sketch 3.8.1 (29687) - http://www.bohemiancoding.com/sketch -->
    <title>YES</title>
    <desc>Created with Sketch.</desc>
    <defs></defs>
    <g id="Page-1" stroke="none" stroke-width="1" fill="none" fill-rule="evenodd">
        <path d="M9.79829921,9.20002786 L5.88741281,0.82854145 L9.3089744,0.82854145 L11.765222,6.5475781 L16.0436331,0.82854145 L19.4060322,0.82854145 L12.7038589,9.21974868 L11.7012041,15.2838996 L8.79238375,15.2838996 L9.79829921,9.20002786 Z M19.9579959,0.82854145 L30.6762594,0.82854145 L30.2719369,3.27392264 L22.4723541,3.27392264 L21.9424959,6.47855525 L29.1997562,6.47855525 L28.7970639,8.91407603 L21.5398036,8.91407603 L20.8893008,12.8483788 L28.9649749,12.8483788 L28.5622827,15.2838996 L17.5679278,15.2838996 L19.9579959,0.82854145 Z M33.0633139,10.3043936 C33.0766289,11.2575711 33.3076306,11.9576531 33.756326,12.4046605 C34.2050215,12.8516679 34.8730798,13.0751682 35.7605209,13.0751682 C36.7005512,13.0751682 37.4417281,12.8763186 37.984074,12.4786135 C38.5264198,12.0809084 38.8416073,11.6158305 38.9296457,11.0833658 C38.9861642,10.7415366 38.934012,10.4506575 38.7731877,10.2107197 C38.6123634,9.97078189 38.2968308,9.762072 37.8265804,9.58458377 C37.5043153,9.46625828 36.760131,9.25590502 35.594005,8.95351766 C34.0936059,8.565673 33.0746234,8.08909138 32.537027,7.5237585 C31.7811,6.72834827 31.4977006,5.75875118 31.6868202,4.61493813 C31.8085523,3.87869065 32.1311126,3.19011238 32.6545108,2.54918265 C33.177909,1.90825292 33.8600886,1.42016761 34.70107,1.08491206 C35.5420513,0.74965651 36.5179998,0.58203125 37.6289447,0.58203125 C39.4432688,0.58203125 40.7431655,0.979730396 41.5286739,1.77514062 C42.3141822,2.57055084 42.6201633,3.63217749 42.4466261,4.96005241 L39.506751,5.08823772 C39.5046709,4.3454166 39.325108,3.8113165 38.9680569,3.48592141 C38.6110057,3.16052632 38.0216366,2.99783121 37.1999318,2.99783121 C36.3519325,2.99783121 35.6592028,3.17203001 35.1217218,3.52043284 C34.7758064,3.74393654 34.5718753,4.04303259 34.5099223,4.41772997 C34.4534038,4.75955916 34.5496556,5.05208167 34.7986806,5.29530628 C35.1157203,5.60426728 35.9564647,5.92637072 37.320939,6.26162627 C38.6854132,6.59688182 39.6782034,6.94363603 40.2993392,7.30189932 C40.920475,7.6601626 41.3719593,8.1498913 41.6538057,8.77110011 C41.935652,9.39230892 42.0010351,10.1597697 41.8499568,11.0735054 C41.7130081,11.9017838 41.3546827,12.6774615 40.7749696,13.4005617 C40.1952566,14.1236619 39.4556239,14.6610487 38.5560494,15.0127384 C37.6564749,15.364428 36.5789213,15.5402702 35.3233564,15.5402702 C33.495885,15.5402702 32.1622662,15.1179203 31.32246,14.2732078 C30.4826538,13.4284953 30.1011266,12.1976 30.1778671,10.580485 L33.0633139,10.3043936 Z M3.34270366,16.8155497 L6.33040729,16.8155497 L6.86781214,26.7449805 L11.1521468,16.8155497 L14.6230104,16.8155497 L15.4876743,26.9126075 L19.3757271,16.8155497 L22.3141287,16.8155497 L16.4137553,31.2709078 L13.3175872,31.2709078 L12.225193,20.4639006 L7.56896928,31.2709078 L4.4037783,31.2709078 L3.34270366,16.8155497 Z M22.905534,16.8155497 L33.6237976,16.8155497 L33.219475,19.2609308 L25.4198922,19.2609308 L24.890034,22.4655634 L32.1472943,22.4655634 L31.7446021,24.9010842 L24.4873418,24.9010842 L23.8368389,28.835387 L31.9125131,28.835387 L31.5098208,31.2709078 L20.5154659,31.2709078 L22.905534,16.8155497 Z M12.5188892,42.8404532 C11.8241745,44.4181264 10.9089926,45.5898598 9.77331594,46.3556887 C8.63763931,47.1215175 7.29413184,47.5044262 5.74275322,47.5044262 C3.82325086,47.5044262 2.35401741,46.8487156 1.3350088,45.5372748 C0.316000191,44.225834 -0.0054666138,42.4329011 0.370598744,40.1584222 C0.768401984,37.7524707 1.69854649,35.883942 3.16106017,34.5527803 C4.62357384,33.2216185 6.36714481,32.5560477 8.39182538,32.5560477 C10.1601341,32.5560477 11.5100457,33.0786441 12.4416007,34.1238525 C12.9967965,34.7417745 13.3430835,35.6292024 13.480472,36.7861627 L10.4772492,37.4763913 C10.4302405,36.7269965 10.171445,36.1353779 9.70085485,35.7015178 C9.2302647,35.2676577 8.60713433,35.0507309 7.83144502,35.0507309 C6.75994199,35.0507309 5.82700902,35.435283 5.03261813,36.2043986 C4.23822725,36.9735143 3.69865677,38.2192 3.41389052,39.9414933 C3.11173396,41.7689647 3.22520913,43.0705255 3.75431945,43.8462148 C4.28342977,44.6219041 5.07386413,45.009743 6.12564624,45.009743 C6.90133555,45.009743 7.60930774,44.7632352 8.24958405,44.2702124 C8.88986035,43.7771895 9.41909785,43.0015118 9.83731241,41.9431561 L12.5188892,42.8404532 Z M15.2579166,36.4114672 C15.7083306,35.6752197 16.2662059,35.014579 16.9315592,34.4295252 C17.5969125,33.8444714 18.2914893,33.4106178 19.0153105,33.1279513 C19.9789387,32.7466803 21.0490775,32.5560477 22.2257587,32.5560477 C24.3556175,32.5560477 25.9505764,33.2166884 27.0106833,34.5379897 C28.0707902,35.8592909 28.4062846,37.6965953 28.0171765,40.0499578 C27.6313291,42.3835993 26.6951023,44.2093999 25.2084678,45.5274144 C23.7218334,46.8454289 21.9169007,47.5044262 19.7936155,47.5044262 C17.6440358,47.5044262 16.0433316,46.8487156 14.9914548,45.5372748 C13.939578,44.225834 13.6038511,42.419754 13.984264,40.1189806 C14.2277283,38.6464856 14.6522749,37.4106602 15.2579166,36.4114672 Z M17.526488,43.7426806 C18.1427905,44.5873931 19.0326954,45.009743 20.1962294,45.009743 C21.3597633,45.009743 22.3838584,44.5906798 23.2685453,43.752541 C24.1532323,42.9144021 24.734146,41.6572126 25.011304,39.9809349 C25.2852013,38.3243781 25.1263463,37.0885526 24.5347341,36.2734215 C23.943122,35.4582903 23.0458415,35.0507309 21.8428657,35.0507309 C20.6398899,35.0507309 19.6020912,35.4632205 18.7294385,36.2882121 C17.8567858,37.1132037 17.282976,38.3572461 17.0079918,40.0203765 C16.7373552,41.6572124 16.9101855,42.897968 17.526488,43.7426806 Z M35.9203296,32.8025579 C37.1233054,32.8025579 38.0250979,32.8945874 38.6257341,33.0786493 C39.4324315,33.3284475 40.0854434,33.7721615 40.5847893,34.4098044 C41.0841353,35.0474473 41.4152164,35.8280551 41.5780424,36.7516513 C41.7408684,37.6752474 41.7103318,38.8141132 41.4864316,40.1682826 C41.2897038,41.3581112 40.9722462,42.3835833 40.5340493,43.2447299 C39.9985962,44.2965121 39.3418226,45.1477854 38.563709,45.7985756 C37.9760218,46.2915985 37.2287914,46.6761506 36.3219952,46.9522434 C35.6440849,47.1560261 34.7661046,47.257916 33.688028,47.257916 L28.1957807,47.257916 L30.5858489,32.8025579 L35.9203296,32.8025579 Z M31.5171537,44.8223952 L33.6963039,44.8223952 C34.511435,44.8223952 35.107375,44.7763805 35.4841416,44.6843495 C35.9770076,44.566024 36.4029264,44.3655311 36.7619107,44.0828646 C37.1208949,43.8001982 37.4525162,43.3351203 37.7567844,42.6876169 C38.0610526,42.0401135 38.3055691,41.1576158 38.4903411,40.0400973 C38.6751131,38.9225788 38.7183475,38.0647319 38.6200457,37.4665308 C38.5217439,36.8683298 38.3228236,36.4016085 38.0232787,36.0663529 C37.7237339,35.7310974 37.3109437,35.5043102 36.7848958,35.3859848 C36.3925468,35.2939538 35.6014699,35.247939 34.4116413,35.247939 L33.1002071,35.247939 L31.5171537,44.8223952 Z M44.2817365,32.8025579 L55,32.8025579 L54.5956774,35.247939 L46.7960947,35.247939 L46.2662365,38.4525717 L53.5234968,38.4525717 L53.1208045,40.8880924 L45.8635442,40.8880924 L45.2130413,44.8223952 L53.2887155,44.8223952 L52.8860233,47.257916 L41.8916683,47.257916 L44.2817365,32.8025579 Z" id="YES" fill="#000000"></path>
    </g>
</svg>