<?xml version="1.0" encoding="UTF-8"?>
<svg width="110px" height="118px" viewBox="0 0 110 118" version="1.1" xmlns="http://www.w3.org/2000/svg" xmlns:xlink="http://www.w3.org/1999/xlink">
    <!-- Generator: Sketch 3.8.1 (29687) - http://www.bohemiancoding.com/sketch -->
    <title>fmc</title>
    <desc>Created with Sketch.</desc>
    <defs>
        <path d="M0.2,31 L0.2,4.216 C0.2,1.62398704 1.86398336,0.328 5.192,0.328 L18.92,0.328 L18.92,8.008 L10.28,8.008 C10.2159997,8.008 10.184,8.03999968 10.184,8.104 L10.184,9.88 L18.824,9.88 L18.824,17.56 L10.184,17.56 L10.184,31 L0.2,31 Z M33.224,8.104 C33.224,8.03999968 33.1920003,8.008 33.128,8.008 L30.872,8.008 C30.8079997,8.008 30.776,8.03999968 30.776,8.104 L30.776,23.272 C30.776,23.3360003 30.8079997,23.368 30.872,23.368 L33.128,23.368 C33.1920003,23.368 33.224,23.3360003 33.224,23.272 L33.224,8.104 Z M25.784,31 C22.4559834,31 20.792,29.7360126 20.792,27.208 L20.792,4.216 C20.792,1.62398704 22.4559834,0.328 25.784,0.328 L38.216,0.328 C41.5440166,0.328 43.208,1.62398704 43.208,4.216 L43.208,27.208 C43.208,29.7360126 41.5440166,31 38.216,31 L25.784,31 Z M63.032,40.552 C59.7039834,40.552 58.04,39.2880126 58.04,36.76 L58.04,18.808 C58.04,18.7439997 58.0080003,18.712 57.944,18.712 L55.592,18.712 L55.592,31 L45.608,31 L45.608,0.328 L63.032,0.328 C66.3280165,0.328 67.976,1.62398704 67.976,4.216 L67.976,13.144 C67.976,14.6160074 67.1600082,15.447999 65.528,15.64 C67.1920083,15.8640011 68.024,16.7119926 68.024,18.184 L68.024,32.824 C68.024,32.8880003 68.0559997,32.92 68.12,32.92 L93.896,32.92 L93.896,40.552 L63.032,40.552 Z M58.04,8.104 C58.04,8.03999968 58.0080003,8.008 57.944,8.008 L55.592,8.008 L55.592,12.616 L57.944,12.616 C58.0080003,12.616 58.04,12.5840003 58.04,12.52 L58.04,8.104 Z M83.384,31 L80.12,22.792 L80.12,31 L70.472,31 L70.472,0.328 L80.12,0.328 L80.12,8.152 L83.096,0.328 L93.608,0.328 L86.744,15.112 L93.896,31 L83.384,31 Z" id="path-1"></path>
        <mask id="mask-2" maskContentUnits="userSpaceOnUse" maskUnits="objectBoundingBox" x="-2" y="-2" width="97.696" height="44.224">
            <rect x="-1.8" y="-1.672" width="97.696" height="44.224" fill="white"></rect>
            <use xlink:href="#path-1" fill="black"></use>
        </mask>
        <path d="M7.144,96 C3.81598336,96 3.152,94.7360126 3.152,92.208 L3.152,69.216 C3.152,66.623987 3.81598336,62.328 7.144,62.328 L19.576,62.328 C22.9040166,62.328 24.568,66.623987 24.568,69.216 L24.568,78.288 L14.584,78.288 L14.584,73.104 C14.584,73.0399997 14.5520003,73.008 14.488,73.008 L12.232,73.008 C12.1679997,73.008 12.136,73.0399997 12.136,73.104 L12.136,88.272 C12.136,88.3360003 12.1679997,88.368 12.232,88.368 L14.488,88.368 C14.5520003,88.368 14.584,88.3360003 14.584,88.272 L14.584,81.12 L24.568,81.12 L24.568,92.208 C24.568,94.7360126 22.9040166,96 19.576,96 L7.144,96 Z" id="path-3"></path>
        <mask id="mask-4" maskContentUnits="userSpaceOnUse" maskUnits="objectBoundingBox" x="-2" y="-2" width="25.416" height="37.672">
            <rect x="1.152" y="60.328" width="25.416" height="37.672" fill="white"></rect>
            <use xlink:href="#path-3" fill="black"></use>
        </mask>
        <path d="M37.32,76.92 C37.32,76.8666664 37.2933336,76.84 37.24,76.84 L35.36,76.84 C35.3066664,76.84 35.28,76.8666664 35.28,76.92 L35.28,89.56 C35.28,89.6133336 35.3066664,89.64 35.36,89.64 L37.24,89.64 C37.2933336,89.64 37.32,89.6133336 37.32,89.56 L37.32,76.92 Z M31.12,96 C28.3466528,96 26.96,94.9466772 26.96,92.84 L26.96,73.68 C26.96,71.5199892 28.3466528,70.44 31.12,70.44 L41.48,70.44 C44.2533472,70.44 45.64,71.5199892 45.64,73.68 L45.64,92.84 C45.64,94.9466772 44.2533472,96 41.48,96 L31.12,96 Z M51.72,96 C50.2799928,96 49.22667,95.7400026 48.56,95.22 C47.89333,94.6999974 47.56,93.906672 47.56,92.84 L47.56,73.68 C47.56,71.5199892 48.9466528,70.44 51.72,70.44 L57.92,70.44 L57.92,64.04 L66.24,64.04 L66.24,96 L51.72,96 Z M57.92,76.84 L55.96,76.84 C55.9066664,76.84 55.88,76.8666664 55.88,76.92 L55.88,89.56 C55.88,89.6133336 55.9066664,89.64 55.96,89.64 L57.92,89.64 L57.92,76.84 Z" id="path-5"></path>
        <mask id="mask-6" maskContentUnits="userSpaceOnUse" maskUnits="objectBoundingBox" x="-2" y="-2" width="44.32" height="35.96">
            <rect x="24.96" y="62.04" width="44.32" height="35.96" fill="white"></rect>
            <use xlink:href="#path-5" fill="black"></use>
        </mask>
        <path d="M79.32,76.92 C79.32,76.8666664 79.2933336,76.84 79.24,76.84 L77.36,76.84 C77.3066664,76.84 77.28,76.8666664 77.28,76.92 L77.28,80.48 L79.32,80.48 L79.32,76.92 Z M73.12,96 C70.3466528,96 68.96,94.9466772 68.96,92.84 L68.96,73.68 C68.96,71.5199892 70.3466528,70.44 73.12,70.44 L83.48,70.44 C86.2533472,70.44 87.64,71.5199892 87.64,73.68 L87.64,86.44 L77.28,86.44 L77.28,89.56 C77.28,89.6133336 77.3066664,89.64 77.36,89.64 L79.24,89.64 C79.2933336,89.64 79.32,89.6133336 79.32,89.56 L79.32,88.04 L87.64,88.04 L87.64,92.84 C87.64,94.9466772 86.2533472,96 83.48,96 L73.12,96 Z" id="path-7"></path>
        <mask id="mask-8" maskContentUnits="userSpaceOnUse" maskUnits="objectBoundingBox" x="-2" y="-2" width="23.64" height="29.56">
            <rect x="66.96" y="68.44" width="23.64" height="29.56" fill="white"></rect>
            <use xlink:href="#path-7" fill="black"></use>
        </mask>
        <path d="M24.932,60 L24.932,39.966 C24.932,39.9099997 24.9040003,39.882 24.848,39.882 L22.79,39.882 C22.7339997,39.882 22.706,39.9099997 22.706,39.966 L22.706,60 L13.97,60 L13.97,39.966 C13.97,39.9099997 13.9420003,39.882 13.886,39.882 L11.912,39.882 C11.8559997,39.882 11.828,39.9099997 11.828,39.966 L11.828,60 L3.092,60 L3.092,33.162 L11.828,33.162 L11.828,34.884 C12.3600027,34.3239972 13.122995,33.8970015 14.117,33.603 C15.111005,33.3089985 16.2379937,33.162 17.498,33.162 C18.7860064,33.162 19.7869964,33.3299983 20.501,33.666 C21.2150036,34.0020017 21.8099976,34.5059966 22.286,35.178 C22.9300032,34.3659959 23.7349952,33.8270013 24.701,33.561 C25.6670048,33.2949987 26.8359931,33.162 28.208,33.162 C28.9640038,33.162 29.6709967,33.2529991 30.329,33.435 C30.9870033,33.6170009 31.5539976,33.8759983 32.03,34.212 C32.5060024,34.5480017 32.8839986,34.9469977 33.164,35.409 C33.4440014,35.8710023 33.584,36.3679973 33.584,36.9 L33.584,60 L24.932,60 Z M26.642,68.358 L26.642,61.68 L46.436,61.68 C46.4920003,61.68 46.52,61.6520003 46.52,61.596 L46.52,60 L40.01,60 C37.0979854,60 35.642,58.8940111 35.642,56.682 L35.642,33.162 L44.378,33.162 L44.378,53.238 C44.378,53.2940003 44.4059997,53.322 44.462,53.322 L46.52,53.322 L46.52,33.162 L55.256,33.162 L55.256,65.04 C55.256,67.2520111 53.8000146,68.358 50.888,68.358 L26.642,68.358 Z" id="path-9"></path>
        <mask id="mask-10" maskContentUnits="userSpaceOnUse" maskUnits="objectBoundingBox" x="-2" y="-2" width="56.164" height="39.196">
            <rect x="1.092" y="31.162" width="56.164" height="39.196" fill="white"></rect>
            <use xlink:href="#path-9" fill="black"></use>
        </mask>
    </defs>
    <g id="Page-1" stroke="none" stroke-width="1" fill="none" fill-rule="evenodd">
        <g id="fmc" transform="translate(2.000000, 2.000000)">
            <use id="Fork" stroke="#000000" mask="url(#mask-2)" stroke-width="4" xlink:href="#path-1"></use>
            <use id="c" stroke="#000000" mask="url(#mask-4)" stroke-width="4" xlink:href="#path-3"></use>
            <use id="od" stroke="#000000" mask="url(#mask-6)" stroke-width="4" xlink:href="#path-5"></use>
            <use id="e" stroke="#000000" mask="url(#mask-8)" stroke-width="4" xlink:href="#path-7"></use>
            <use id="my" stroke="#000000" mask="url(#mask-10)" stroke-width="4" xlink:href="#path-9"></use>
            <path d="M37.921875,106.242188 L38.3671875,106.570312 C38.5859386,106.695313 38.6953125,106.968748 38.6953125,107.390625 C38.6953125,107.484375 38.6562504,107.593749 38.578125,107.71875 C38.4999996,107.843751 38.4296878,107.976562 38.3671875,108.117188 C37.8203098,109.195318 37.1796912,109.734375 36.4453125,109.734375 C36.2109363,109.734375 35.8437525,109.52344 35.34375,109.101562 C34.8437475,108.679685 34.5273444,108.296877 34.3945312,107.953125 C34.2617181,107.609373 34.1523442,107.390625 34.0664062,107.296875 C33.9804683,107.203125 33.9375,107.125 33.9375,107.0625 C33.9375,106.890624 34.0039056,106.703126 34.1367188,106.5 C34.2695319,106.296874 34.3671872,106.04297 34.4296875,105.738281 C34.4921878,105.433592 34.6601549,105.207032 34.9335938,105.058594 C35.2070326,104.910156 35.4062494,104.765626 35.53125,104.625 C35.6562506,104.484374 35.8203115,104.414062 36.0234375,104.414062 C36.1484381,104.414062 36.2734369,104.468749 36.3984375,104.578125 C36.5234381,104.687501 36.6992176,104.800781 36.9257812,104.917969 C37.1523449,105.035157 37.3828113,105.289061 37.6171875,105.679688 L37.921875,106.242188 Z M45.28125,100.851562 L45.28125,100.617188 C45.28125,100.460937 45.4374984,100.125003 45.75,99.609375 C46.0625016,99.0937474 46.421873,98.7578133 46.828125,98.6015625 C46.8593752,98.6015625 46.875,98.5859377 46.875,98.5546875 L46.828125,98.1796875 C46.8906253,98.1171872 47.0468738,97.9140642 47.296875,97.5703125 C47.5468762,97.2265608 47.7890613,97.0781248 48.0234375,97.125 C48.1953134,96.8749988 48.4140612,96.6679696 48.6796875,96.5039062 C48.9453138,96.3398429 49.1874989,96.1250013 49.40625,95.859375 L50.2734375,95.3203125 C50.8828155,94.9140605 51.3281236,94.7109375 51.609375,94.7109375 L51.9609375,94.7109375 C52.1484384,94.3984359 52.3984359,94.2421875 52.7109375,94.2421875 C53.007814,94.2421875 53.2031245,94.289062 53.296875,94.3828125 C53.3281252,94.4140627 53.3593748,94.4296875 53.390625,94.4296875 C53.4062501,94.4296875 53.4999991,94.3671881 53.671875,94.2421875 C53.8437509,94.1171869 54.0546863,94.0546875 54.3046875,94.0546875 C54.3671878,94.0546875 54.7187468,94.1796863 55.359375,94.4296875 C55.5468759,94.2421866 55.7265616,94.1484375 55.8984375,94.1484375 C55.9609378,94.1484375 56.0703117,94.195312 56.2265625,94.2890625 C56.3828133,94.382813 56.5429679,94.4648434 56.7070312,94.5351562 C56.8710946,94.6054691 57.0312492,94.8945287 57.1875,95.4023438 C57.3437508,95.9101588 57.421875,96.1953122 57.421875,96.2578125 C57.421875,96.5078137 57.2148458,96.8007796 56.8007812,97.1367188 C56.3867167,97.4726579 56.0000018,97.640625 55.640625,97.640625 C55.5156244,97.640625 55.3593759,97.5312511 55.171875,97.3125 C54.7031227,97.2187495 54.3046891,97.1015632 53.9765625,96.9609375 C53.5390603,97.054688 53.2031262,97.1718743 52.96875,97.3125 L52.921875,97.3125 L52.7109375,97.125 L52.5234375,97.078125 L52.4765625,97.078125 C52.4296873,97.1406253 52.3671879,97.2499992 52.2890625,97.40625 C52.0390613,97.5781259 51.8242196,97.691406 51.6445312,97.7460938 C51.4648429,97.8007815 51.320313,97.8867182 51.2109375,98.0039062 C51.101562,98.1210943 50.91797,98.2421869 50.6601562,98.3671875 C50.4023425,98.4921881 50.2109381,98.6640614 50.0859375,98.8828125 C49.7734359,99.0546884 49.5468757,99.1562498 49.40625,99.1875 L49.265625,99.1875 C49.1406244,99.4375012 48.8515648,99.8515596 48.3984375,100.429688 L47.7890625,101.4375 C47.6484368,101.562501 47.4765635,101.70703 47.2734375,101.871094 C47.0703115,102.035157 46.96875,102.179687 46.96875,102.304688 C46.96875,102.335938 46.9843748,102.414062 47.015625,102.539062 L47.015625,102.773438 C47.015625,102.867188 46.941407,102.980468 46.7929688,103.113281 C46.6445305,103.246094 46.5703125,103.34375 46.5703125,103.40625 L46.6171875,103.921875 L46.4296875,104.742188 C46.4296875,105.226565 46.7812465,105.46875 47.484375,105.46875 L47.8359375,105.46875 L48.84375,105.304688 C49.1718766,105.257812 49.4453114,105.210938 49.6640625,105.164062 C49.8828136,105.117187 50.0078123,105.09375 50.0390625,105.09375 C50.0703127,105.09375 50.1953114,105.007813 50.4140625,104.835938 L50.6484375,104.835938 L50.859375,104.789062 C50.9218753,104.460936 51.3671834,104.187501 52.1953125,103.96875 C52.3828134,103.687499 52.6992165,103.480469 53.1445312,103.347656 C53.589846,103.214843 54.0390602,102.92969 54.4921875,102.492188 L54.84375,102.492188 C54.8906252,102.492188 55.035155,102.402345 55.2773438,102.222656 C55.5195325,102.042968 55.76953,101.898438 56.0273438,101.789062 C56.2851575,101.679687 56.4453122,101.585938 56.5078125,101.507812 C56.5703128,101.429687 56.6874991,101.359375 56.859375,101.296875 C57.1406264,100.859373 57.4765605,100.585938 57.8671875,100.476562 L57.9609375,100.382812 C58.2109387,100.164061 58.3671872,100.054688 58.4296875,100.054688 L58.7109375,100.101562 C58.8671883,100.101562 58.9648436,100.003907 59.0039062,99.8085938 C59.0429689,99.6132803 59.2929664,99.3476579 59.7539062,99.0117188 C60.2148461,98.6757796 60.5078119,98.5078125 60.6328125,98.5078125 C60.929689,98.5078125 61.078125,98.6640609 61.078125,98.9765625 C61.078125,99.2109387 60.9453138,99.3437498 60.6796875,99.375 C60.8515634,99.781252 60.9375,100.007812 60.9375,100.054688 C60.9375,100.570315 60.6796901,100.906249 60.1640625,101.0625 C60.1015622,101.09375 60.0703125,101.140625 60.0703125,101.203125 L60.0234375,101.625 C60.0390626,101.625 60.0390626,101.636719 60.0234375,101.660156 C60.0078124,101.683594 59.9765627,101.71875 59.9296875,101.765625 L59.578125,101.8125 L59.484375,101.953125 C59.1406233,102.140626 58.7421898,102.460935 58.2890625,102.914062 L57.8203125,103.40625 L57.75,103.40625 C57.5937492,103.249999 57.4687505,103.171875 57.375,103.171875 C57.3124997,103.171875 57.2343755,103.281249 57.140625,103.5 C56.6093723,104.031253 56.2265637,104.335937 55.9921875,104.414062 C55.898437,104.445313 55.7343762,104.570311 55.5,104.789062 L55.03125,105.09375 L54.6796875,105.09375 C54.6328123,105.140625 54.5898439,105.207031 54.5507812,105.292969 C54.5117186,105.378907 54.3750012,105.507812 54.140625,105.679688 C53.9062488,105.851563 53.7382818,106.003906 53.6367188,106.136719 C53.5351557,106.269532 53.3906259,106.367187 53.203125,106.429688 L52.78125,106.335938 C52.6406243,106.585939 52.3828144,106.710938 52.0078125,106.710938 C51.914062,106.773438 51.7773446,106.89453 51.5976562,107.074219 C51.4179679,107.253907 51.2968753,107.34375 51.234375,107.34375 C51.1718747,107.34375 51.0078138,107.250001 50.7421875,107.0625 L50.6953125,107.0625 C50.5390617,107.0625 50.4609375,107.179686 50.4609375,107.414062 C50.4609375,107.648439 50.3164077,107.773437 50.0273438,107.789062 C49.7382798,107.804688 49.4687512,107.882812 49.21875,108.023438 L49.171875,108.023438 C48.8124982,108.023438 48.5546883,107.957032 48.3984375,107.824219 C48.2421867,107.691406 48.1015631,107.59375 47.9765625,107.53125 C47.4921851,107.687501 47.2343752,107.765625 47.203125,107.765625 C47.0156241,107.765625 46.8359384,107.687501 46.6640625,107.53125 L45.65625,107.015625 C45.5937497,106.96875 45.4843758,106.757814 45.328125,106.382812 L45.1875,106.195312 C44.6874975,106.101562 44.3515634,105.585942 44.1796875,104.648438 L43.9921875,104.085938 C43.9609373,104.054687 43.9453125,103.984376 43.9453125,103.875 C43.9453125,103.718749 44.0078119,103.48047 44.1328125,103.160156 C44.2578131,102.839842 44.3828119,102.410159 44.5078125,101.871094 C44.6328131,101.332029 44.890623,100.992188 45.28125,100.851562 L45.28125,100.851562 Z M71.671875,105.1875 L70.5703125,106.148438 C70.5078122,106.085937 70.4453128,106.054688 70.3828125,106.054688 C70.2265617,106.054688 70.0351574,106.195311 69.8085938,106.476562 C69.5820301,106.757814 69.4218755,106.898438 69.328125,106.898438 L69.09375,106.851562 C68.703123,107.148439 68.4218759,107.320312 68.25,107.367188 C68.0781241,107.414063 67.871095,107.499999 67.6289062,107.625 C67.3867175,107.750001 67.1679697,107.820312 66.9726562,107.835938 C66.7773428,107.851563 66.6171881,107.917968 66.4921875,108.035156 C66.3671869,108.152344 66.0625024,108.210938 65.578125,108.210938 L65.203125,108.164062 C64.999999,108.257813 64.8671878,108.304688 64.8046875,108.304688 C64.6796869,108.304688 64.5468757,108.238282 64.40625,108.105469 C64.2656243,107.972656 64.1132821,107.898438 63.9492188,107.882812 C63.7851554,107.867187 63.6171884,107.757814 63.4453125,107.554688 C63.2734366,107.351561 63.113282,107.210938 62.9648438,107.132812 C62.8164055,107.054687 62.695313,106.945313 62.6015625,106.804688 L62.2734375,106.523438 C62.0078112,106.335937 61.7500012,105.99219 61.5,105.492188 C61.2499988,104.992185 61.125,104.601564 61.125,104.320312 L61.125,104.226562 L61.171875,103.78125 L61.125,103.265625 C61.1875003,103.203125 61.2656245,103.070314 61.359375,102.867188 L61.359375,102.117188 L61.921875,100.242188 C61.9531252,100.164062 61.8906258,100.062501 61.734375,99.9375 C61.5781242,100.171876 61.4218758,100.3125 61.265625,100.359375 C61.1093742,100.40625 61.0039065,100.515624 60.9492188,100.6875 C60.894531,100.859376 60.8046881,100.945312 60.6796875,100.945312 L60.3984375,100.851562 C60.3671873,100.882813 60.2968755,101.042967 60.1875,101.332031 C60.0781245,101.621095 59.8906263,101.765625 59.625,101.765625 C59.3437486,101.765625 59.203125,101.656251 59.203125,101.4375 L59.25,101.015625 L59.109375,100.429688 C59.109375,100.304687 59.2343738,100.058596 59.484375,99.6914062 C59.7343762,99.3242169 59.9648427,99.1132815 60.1757812,99.0585938 C60.3867198,99.003906 60.5664055,98.85547 60.7148438,98.6132812 C60.863282,98.3710925 61.1874975,98.0781267 61.6875,97.734375 C61.9687514,97.6718747 62.2109365,97.4687517 62.4140625,97.125 C62.6328136,96.9531241 62.917967,96.8125005 63.2695312,96.703125 C63.6210955,96.5937495 63.8867179,96.4335948 64.0664062,96.2226562 C64.2460946,96.0117177 64.7773393,95.683596 65.6601562,95.2382812 C66.5429732,94.7929665 67.187498,94.5703125 67.59375,94.5703125 C67.7187506,94.5703125 67.8906239,94.5351566 68.109375,94.4648438 C68.3281261,94.3945309 68.5312491,94.3320315 68.71875,94.2773438 C68.9062509,94.222656 69.1015615,94.1367193 69.3046875,94.0195312 C69.5078135,93.9023432 69.6718744,93.84375 69.796875,93.84375 L70.4765625,94.078125 C70.976565,94.2187507 71.2812495,94.3203122 71.390625,94.3828125 C71.4218752,94.4140627 71.5820298,94.4804682 71.8710938,94.5820312 C72.1601577,94.6835943 72.4570297,94.8203116 72.7617188,94.9921875 C73.0664078,95.1640634 73.21875,95.4843727 73.21875,95.953125 C72.9531237,96.343752 72.8203125,96.5546873 72.8203125,96.5859375 C72.8203125,96.6484378 72.9999982,96.7421869 73.359375,96.8671875 C73.4843756,97.1015637 73.6718738,97.4062481 73.921875,97.78125 L74.1796875,98.6015625 L74.2265625,100.523438 L74.1796875,100.710938 C74.0078116,100.867188 73.921875,100.96875 73.921875,101.015625 L73.9921875,101.484375 L73.8046875,102.140625 C73.7578123,102.343751 73.679688,102.476562 73.5703125,102.539062 C73.460937,102.601563 73.3906252,102.679687 73.359375,102.773438 L73.21875,102.960938 C73.1874998,103.007813 73.1210943,103.14453 73.0195312,103.371094 C72.9179682,103.597657 72.8046881,103.773437 72.6796875,103.898438 C72.5546869,104.023438 72.4765627,104.171874 72.4453125,104.34375 C72.4140623,104.515626 72.3359381,104.640625 72.2109375,104.71875 C72.0859369,104.796875 71.996094,104.878906 71.9414062,104.964844 C71.8867185,105.050782 71.7968756,105.125 71.671875,105.1875 L71.671875,105.1875 Z M64.3828125,105.796875 L64.4765625,106.335938 L64.5234375,106.382812 L64.8984375,106.382812 L65.015625,106.429688 C65.3281266,106.492188 65.5624992,106.523438 65.71875,106.523438 C66.2031274,106.523438 66.5898423,106.402345 66.8789062,106.160156 C67.1679702,105.917968 67.3984366,105.796875 67.5703125,105.796875 C67.7421884,105.796875 67.8867182,105.679689 68.0039062,105.445312 C68.1210943,105.210936 68.1953123,105.09375 68.2265625,105.09375 L68.5546875,105.09375 L68.6484375,105.046875 C68.6484375,104.687498 68.8085921,104.429688 69.1289062,104.273438 C69.4492204,104.117187 69.6757806,103.910158 69.8085938,103.652344 C69.9414069,103.39453 70.0937491,103.199219 70.265625,103.066406 C70.4375009,102.933593 70.5546872,102.757814 70.6171875,102.539062 L70.8046875,102.257812 C70.8671878,102.195312 70.8984375,102.078126 70.8984375,101.90625 L71.34375,101.0625 C71.4375005,100.671873 71.484375,100.367189 71.484375,100.148438 C71.484375,99.8203109 71.3164079,99.5625009 70.9804688,99.375 C70.6445296,99.1874991 70.4765625,98.8203152 70.4765625,98.2734375 C70.4765625,97.9140607 70.6601544,97.5820328 71.0273438,97.2773438 C71.3945331,96.9726547 71.578125,96.7890628 71.578125,96.7265625 C71.578125,96.632812 71.5312505,96.5859375 71.4375,96.5859375 C71.3906248,96.5859375 71.2109391,96.6484369 70.8984375,96.7734375 C70.789062,96.9921886 70.23438,97.2812482 69.234375,97.640625 C68.9062484,97.4843742 68.7265627,97.40625 68.6953125,97.40625 C68.601562,97.40625 68.507813,97.4999991 68.4140625,97.6875 C68.320312,97.8750009 68.226563,98.0078121 68.1328125,98.0859375 L67.828125,98.0859375 C67.7968748,98.0859375 67.6953134,98.187499 67.5234375,98.390625 C67.3515616,98.593751 67.1328138,98.6953125 66.8671875,98.6953125 L66.5859375,98.9765625 C66.6015626,99.2265637 66.4453141,99.4843737 66.1171875,99.75 L65.859375,100.054688 C65.7031242,100.242188 65.5000012,100.460936 65.25,100.710938 L64.828125,101.765625 C64.6562491,102.171877 64.5703125,102.476561 64.5703125,102.679688 C64.5234373,102.773438 64.4179696,102.871093 64.2539062,102.972656 C64.0898429,103.074219 64.0078125,103.203124 64.0078125,103.359375 C64.0078125,103.390625 64.0624995,103.468749 64.171875,103.59375 C64.2812505,103.718751 64.3359375,103.8125 64.3359375,103.875 L64.2421875,104.179688 L64.1484375,105.046875 L64.3828125,105.796875 Z M86.4140625,96.984375 L87.0703125,96.6796875 C87.2890636,96.5390618 87.499999,96.3359388 87.703125,96.0703125 L88.5234375,95.484375 C88.9921898,95.1718734 89.2968743,95.015625 89.4375,95.015625 L89.8125,95.15625 C89.8437502,95.15625 89.9414054,95.0585947 90.1054688,94.8632812 C90.2695321,94.6679678 90.4609364,94.5703125 90.6796875,94.5703125 C90.9609389,94.5703125 91.3437476,94.7812479 91.828125,95.203125 C92.3125024,95.6250021 92.5546875,95.9999984 92.5546875,96.328125 L92.4609375,97.125 C92.4609375,97.2500006 92.5234369,97.6015596 92.6484375,98.1796875 L92.6484375,98.3671875 L92.5546875,98.9296875 L92.6484375,99.515625 L92.390625,100.664062 C92.390625,100.960939 92.4921865,101.109375 92.6953125,101.109375 C92.9609388,100.859374 93.1874991,100.710938 93.375,100.664062 L93.703125,100.335938 C93.8281256,100.210937 93.9218747,100.148438 93.984375,100.148438 C94.0468753,100.148438 94.1289057,100.074219 94.2304688,99.9257812 C94.3320318,99.777343 94.4609367,99.6718753 94.6171875,99.609375 C94.7734383,99.5468747 94.8828122,99.4375008 94.9453125,99.28125 C95.8203169,98.3281202 96.4921852,97.7812507 96.9609375,97.640625 C97.0234378,97.640625 97.1289055,97.5625008 97.2773438,97.40625 C97.425782,97.2499992 97.5468745,97.1562502 97.640625,97.125 L98.15625,96.7265625 L98.3671875,96.8203125 L98.4140625,96.8203125 C98.4453127,96.8203125 98.5703114,96.7421883 98.7890625,96.5859375 C99.0078136,96.4296867 99.164062,96.3515625 99.2578125,96.3515625 C99.8515655,96.3515625 100.339842,96.5507793 100.722656,96.9492188 C101.105471,97.3476582 101.296875,97.6562489 101.296875,97.875 L101.179688,98.4140625 L101.34375,99.140625 L101.34375,99.609375 L101.226562,100.101562 C101.226562,100.195313 101.292968,100.328124 101.425781,100.5 C101.558594,100.671876 101.625,100.789062 101.625,100.851562 C101.437499,101.054689 101.34375,101.1875 101.34375,101.25 L101.390625,101.671875 L101.273438,102.960938 C101.273438,103.070313 101.374999,103.249999 101.578125,103.5 C101.671875,103.4375 101.804687,103.382813 101.976562,103.335938 C102.148438,103.289062 102.28125,103.238282 102.375,103.183594 C102.46875,103.128906 102.515625,103.097656 102.515625,103.089844 C102.515625,103.082031 102.507813,103.078125 102.492188,103.078125 C102.523438,103.078125 102.617187,103.109375 102.773438,103.171875 L102.867188,103.171875 C102.992188,103.171875 103.0625,103.050782 103.078125,102.808594 C103.09375,102.566405 103.249999,102.367188 103.546875,102.210938 L104.109375,102.257812 C104.140625,102.226562 104.207031,102.097657 104.308594,101.871094 C104.410157,101.64453 104.738278,101.308596 105.292969,100.863281 C105.847659,100.417967 106.273436,100.195312 106.570312,100.195312 C106.820314,100.195312 106.945312,100.304686 106.945312,100.523438 C106.945312,100.585938 106.914063,100.749999 106.851562,101.015625 C106.976563,101.234376 107.039062,101.421874 107.039062,101.578125 C107.039062,101.875001 106.785159,102.195311 106.277344,102.539062 C105.769529,102.882814 105.382814,103.312497 105.117188,103.828125 L105.023438,103.921875 L104.554688,103.875 C104.523437,103.875 104.449219,103.996093 104.332031,104.238281 C104.214843,104.48047 104.078126,104.617187 103.921875,104.648438 C103.765624,104.679688 103.65625,104.726562 103.59375,104.789062 L103.101562,105.09375 C103.007812,105.15625 102.699221,105.472653 102.175781,106.042969 C101.652341,106.613284 101.210939,106.898438 100.851562,106.898438 C100.695312,106.898438 100.414065,106.816407 100.007812,106.652344 C99.6015605,106.48828 99.3281257,106.320313 99.1875,106.148438 C99.0468743,105.976562 98.8476575,105.781251 98.5898438,105.5625 C98.33203,105.343749 98.203125,104.929691 98.203125,104.320312 C98.203125,104.289062 98.2460933,104.234375 98.3320312,104.15625 C98.4179692,104.078125 98.4609375,104.015625 98.4609375,103.96875 C98.1015607,103.499998 97.921875,103.164064 97.921875,102.960938 C97.921875,102.867187 97.9374998,102.765626 97.96875,102.65625 C98.0000002,102.546874 98.015625,102.445313 98.015625,102.351562 L97.96875,101.53125 L98.0625,101.109375 L98.015625,100.851562 L98.15625,99.65625 C98.15625,99.4687491 98.0468761,99.375 97.828125,99.375 C97.7656247,99.375 97.679688,99.4374994 97.5703125,99.5625 C97.460937,99.6875006 97.3242196,99.7851559 97.1601562,99.8554688 C96.9960929,99.9257816 96.8203134,100.148436 96.6328125,100.523438 C96.3515611,100.679688 96.1601568,100.832031 96.0585938,100.980469 C95.9570307,101.128907 95.8750003,101.203125 95.8125,101.203125 C95.7812498,101.203125 95.7187505,101.1875 95.625,101.15625 C95.4374991,101.281251 95.34375,101.421874 95.34375,101.578125 L95.34375,101.671875 L95.390625,101.859375 C95.390625,102.000001 95.2734387,102.132812 95.0390625,102.257812 C94.8046863,102.382813 94.5156267,102.703122 94.171875,103.21875 C94.0156242,103.21875 93.9062503,103.234375 93.84375,103.265625 L93.5625,103.828125 C93.4062492,103.921875 93.2578132,104.085936 93.1171875,104.320312 L92.8359375,104.460938 C92.726562,104.664064 92.617188,104.835937 92.5078125,104.976562 L92.3671875,105.234375 C91.6953091,106.031254 91.2265638,106.429688 90.9609375,106.429688 C90.6953112,106.429688 90.3750019,106.078129 90,105.375 C89.6249981,104.671871 89.4375,104.125002 89.4375,103.734375 L89.53125,102.867188 C89.53125,102.835937 89.4687506,102.710939 89.34375,102.492188 L89.34375,102.398438 C89.34375,102.367187 89.4062494,102.187502 89.53125,101.859375 L89.53125,101.15625 C89.53125,101.125 89.5156252,101.078125 89.484375,101.015625 L89.484375,100.898438 C89.484375,100.867187 89.5468744,100.742189 89.671875,100.523438 L89.53125,99.84375 L89.625,99.46875 L89.578125,98.6484375 L89.671875,97.921875 C89.671875,97.8749998 89.6289067,97.7929693 89.5429688,97.6757812 C89.4570308,97.5585932 89.3984377,97.5 89.3671875,97.5 C89.257812,97.5 88.9335964,97.6796857 88.3945312,98.0390625 C87.8554661,98.3984393 87.4921884,98.6796865 87.3046875,98.8828125 C87.1171866,99.0859385 86.8671891,99.3281236 86.5546875,99.609375 C86.2265609,99.7656258 86.0000006,100.164059 85.875,100.804688 C85.875,100.835938 85.8437503,100.851562 85.78125,100.851562 C85.78125,100.820312 85.7343755,100.789063 85.640625,100.757812 L85.546875,100.757812 C85.4687496,100.757812 85.2265645,101.093747 84.8203125,101.765625 L84.7265625,101.859375 L84.28125,101.765625 C83.9062481,101.765625 83.71875,102.164059 83.71875,102.960938 C83.71875,103.101563 83.6210947,103.195312 83.4257812,103.242188 C83.2304678,103.289063 83.0781255,103.421874 82.96875,103.640625 C82.8593745,103.859376 82.7109384,104.085936 82.5234375,104.320312 C82.1640607,104.476563 81.9609377,104.59375 81.9140625,104.671875 C81.9140625,104.6875 81.7421892,104.921873 81.3984375,105.375 C81.0546858,105.828127 80.8671877,106.09375 80.8359375,106.171875 C80.8046873,106.25 80.6992196,106.339843 80.5195312,106.441406 C80.3398429,106.542969 80.25,106.632812 80.25,106.710938 L80.3203125,107.109375 C80.3203125,107.359376 80.0781274,107.484375 79.59375,107.484375 C78.6562453,107.484375 78.1875,106.507822 78.1875,104.554688 C78.1875,104.335936 78.2851553,104.089845 78.4804688,103.816406 C78.6757822,103.542967 78.8671866,103.210939 79.0546875,102.820312 C79.351564,102.523436 79.703123,102.093753 80.109375,101.53125 C80.515627,100.968747 80.8203115,100.585939 81.0234375,100.382812 L81.328125,99.890625 C81.328125,99.7031241 81.3671871,99.5625005 81.4453125,99.46875 C81.5234379,99.3749995 81.5625,99.2578132 81.5625,99.1171875 C81.5625,98.8671863 81.5000006,98.7421875 81.375,98.7421875 C81.0781235,98.7421875 80.8437509,98.8164055 80.671875,98.9648438 C80.4999991,99.113282 80.3085948,99.2187497 80.0976562,99.28125 C79.8867177,99.3437503 79.7500003,99.4531242 79.6875,99.609375 C79.4687489,99.7031255 79.2382825,99.9023422 78.9960938,100.207031 C78.753905,100.51172 78.5937504,100.703125 78.515625,100.78125 C78.4374996,100.859375 78.3632816,100.964843 78.2929688,101.097656 C78.2226559,101.230469 78.132813,101.304687 78.0234375,101.320312 C77.914062,101.335938 77.8125005,101.390625 77.71875,101.484375 C77.6249995,101.578125 77.4765635,101.625 77.2734375,101.625 C77.1328118,101.625 77.0039068,101.48047 76.8867188,101.191406 C76.7695307,100.902342 76.7109375,100.726563 76.7109375,100.664062 C76.7109375,99.5234318 77.4687424,98.5390666 78.984375,97.7109375 C79.187501,97.601562 79.3476557,97.492188 79.4648438,97.3828125 C79.5820318,97.273437 79.7031244,97.1875003 79.828125,97.125 L79.921875,96.9609375 C80.0468756,96.7734366 80.5156209,96.5078142 81.328125,96.1640625 L81.65625,96.1640625 L83.2265625,95.765625 C83.8984409,95.6093742 84.234375,96.3671791 84.234375,98.0390625 L84.1875,98.4609375 L84.28125,98.6484375 C84.5468763,98.3984363 84.8164049,98.1757822 85.0898438,97.9804688 C85.3632826,97.7851553 85.5624994,97.6093758 85.6875,97.453125 C85.8125006,97.2968742 86.0546857,97.1406258 86.4140625,96.984375 L86.4140625,96.984375 Z" id=".com" stroke="#000000" stroke-width="2" fill="#FFFFFF" transform="translate(70.488281, 101.789062) rotate(-8.000000) translate(-70.488281, -101.789062) "></path>
            <path d="M36.921875,105.242188 L37.3671875,105.570312 C37.5859386,105.695313 37.6953125,105.968748 37.6953125,106.390625 C37.6953125,106.484375 37.6562504,106.593749 37.578125,106.71875 C37.4999996,106.843751 37.4296878,106.976562 37.3671875,107.117188 C36.8203098,108.195318 36.1796912,108.734375 35.4453125,108.734375 C35.2109363,108.734375 34.8437525,108.52344 34.34375,108.101562 C33.8437475,107.679685 33.5273444,107.296877 33.3945312,106.953125 C33.2617181,106.609373 33.1523442,106.390625 33.0664062,106.296875 C32.9804683,106.203125 32.9375,106.125 32.9375,106.0625 C32.9375,105.890624 33.0039056,105.703126 33.1367188,105.5 C33.2695319,105.296874 33.3671872,105.04297 33.4296875,104.738281 C33.4921878,104.433592 33.6601549,104.207032 33.9335938,104.058594 C34.2070326,103.910156 34.4062494,103.765626 34.53125,103.625 C34.6562506,103.484374 34.8203115,103.414062 35.0234375,103.414062 C35.1484381,103.414062 35.2734369,103.468749 35.3984375,103.578125 C35.5234381,103.687501 35.6992176,103.800781 35.9257812,103.917969 C36.1523449,104.035157 36.3828113,104.289061 36.6171875,104.679688 L36.921875,105.242188 Z M44.28125,99.8515625 L44.28125,99.6171875 C44.28125,99.4609367 44.4374984,99.1250026 44.75,98.609375 C45.0625016,98.0937474 45.421873,97.7578133 45.828125,97.6015625 C45.8593752,97.6015625 45.875,97.5859377 45.875,97.5546875 L45.828125,97.1796875 C45.8906253,97.1171872 46.0468738,96.9140642 46.296875,96.5703125 C46.5468762,96.2265608 46.7890613,96.0781248 47.0234375,96.125 C47.1953134,95.8749988 47.4140612,95.6679696 47.6796875,95.5039062 C47.9453138,95.3398429 48.1874989,95.1250013 48.40625,94.859375 L49.2734375,94.3203125 C49.8828155,93.9140605 50.3281236,93.7109375 50.609375,93.7109375 L50.9609375,93.7109375 C51.1484384,93.3984359 51.3984359,93.2421875 51.7109375,93.2421875 C52.007814,93.2421875 52.2031245,93.289062 52.296875,93.3828125 C52.3281252,93.4140627 52.3593748,93.4296875 52.390625,93.4296875 C52.4062501,93.4296875 52.4999991,93.3671881 52.671875,93.2421875 C52.8437509,93.1171869 53.0546863,93.0546875 53.3046875,93.0546875 C53.3671878,93.0546875 53.7187468,93.1796863 54.359375,93.4296875 C54.5468759,93.2421866 54.7265616,93.1484375 54.8984375,93.1484375 C54.9609378,93.1484375 55.0703117,93.195312 55.2265625,93.2890625 C55.3828133,93.382813 55.5429679,93.4648434 55.7070312,93.5351562 C55.8710946,93.6054691 56.0312492,93.8945287 56.1875,94.4023438 C56.3437508,94.9101588 56.421875,95.1953122 56.421875,95.2578125 C56.421875,95.5078137 56.2148458,95.8007796 55.8007812,96.1367188 C55.3867167,96.4726579 55.0000018,96.640625 54.640625,96.640625 C54.5156244,96.640625 54.3593759,96.5312511 54.171875,96.3125 C53.7031227,96.2187495 53.3046891,96.1015632 52.9765625,95.9609375 C52.5390603,96.054688 52.2031262,96.1718743 51.96875,96.3125 L51.921875,96.3125 L51.7109375,96.125 L51.5234375,96.078125 L51.4765625,96.078125 C51.4296873,96.1406253 51.3671879,96.2499992 51.2890625,96.40625 C51.0390613,96.5781259 50.8242196,96.691406 50.6445312,96.7460938 C50.4648429,96.8007815 50.320313,96.8867182 50.2109375,97.0039062 C50.101562,97.1210943 49.91797,97.2421869 49.6601562,97.3671875 C49.4023425,97.4921881 49.2109381,97.6640614 49.0859375,97.8828125 C48.7734359,98.0546884 48.5468757,98.1562498 48.40625,98.1875 L48.265625,98.1875 C48.1406244,98.4375012 47.8515648,98.8515596 47.3984375,99.4296875 L46.7890625,100.4375 C46.6484368,100.562501 46.4765635,100.70703 46.2734375,100.871094 C46.0703115,101.035157 45.96875,101.179687 45.96875,101.304688 C45.96875,101.335938 45.9843748,101.414062 46.015625,101.539062 L46.015625,101.773438 C46.015625,101.867188 45.941407,101.980468 45.7929688,102.113281 C45.6445305,102.246094 45.5703125,102.34375 45.5703125,102.40625 L45.6171875,102.921875 L45.4296875,103.742188 C45.4296875,104.226565 45.7812465,104.46875 46.484375,104.46875 L46.8359375,104.46875 L47.84375,104.304688 C48.1718766,104.257812 48.4453114,104.210938 48.6640625,104.164062 C48.8828136,104.117187 49.0078123,104.09375 49.0390625,104.09375 C49.0703127,104.09375 49.1953114,104.007813 49.4140625,103.835938 L49.6484375,103.835938 L49.859375,103.789062 C49.9218753,103.460936 50.3671834,103.187501 51.1953125,102.96875 C51.3828134,102.687499 51.6992165,102.480469 52.1445312,102.347656 C52.589846,102.214843 53.0390602,101.92969 53.4921875,101.492188 L53.84375,101.492188 C53.8906252,101.492188 54.035155,101.402345 54.2773438,101.222656 C54.5195325,101.042968 54.76953,100.898438 55.0273438,100.789062 C55.2851575,100.679687 55.4453122,100.585938 55.5078125,100.507812 C55.5703128,100.429687 55.6874991,100.359375 55.859375,100.296875 C56.1406264,99.8593728 56.4765605,99.585938 56.8671875,99.4765625 L56.9609375,99.3828125 C57.2109387,99.1640614 57.3671872,99.0546875 57.4296875,99.0546875 L57.7109375,99.1015625 C57.8671883,99.1015625 57.9648436,99.0039072 58.0039062,98.8085938 C58.0429689,98.6132803 58.2929664,98.3476579 58.7539062,98.0117188 C59.2148461,97.6757796 59.5078119,97.5078125 59.6328125,97.5078125 C59.929689,97.5078125 60.078125,97.6640609 60.078125,97.9765625 C60.078125,98.2109387 59.9453138,98.3437498 59.6796875,98.375 C59.8515634,98.781252 59.9375,99.0078123 59.9375,99.0546875 C59.9375,99.5703151 59.6796901,99.9062492 59.1640625,100.0625 C59.1015622,100.09375 59.0703125,100.140625 59.0703125,100.203125 L59.0234375,100.625 C59.0390626,100.625 59.0390626,100.636719 59.0234375,100.660156 C59.0078124,100.683594 58.9765627,100.71875 58.9296875,100.765625 L58.578125,100.8125 L58.484375,100.953125 C58.1406233,101.140626 57.7421898,101.460935 57.2890625,101.914062 L56.8203125,102.40625 L56.75,102.40625 C56.5937492,102.249999 56.4687505,102.171875 56.375,102.171875 C56.3124997,102.171875 56.2343755,102.281249 56.140625,102.5 C55.6093723,103.031253 55.2265637,103.335937 54.9921875,103.414062 C54.898437,103.445313 54.7343762,103.570311 54.5,103.789062 L54.03125,104.09375 L53.6796875,104.09375 C53.6328123,104.140625 53.5898439,104.207031 53.5507812,104.292969 C53.5117186,104.378907 53.3750012,104.507812 53.140625,104.679688 C52.9062488,104.851563 52.7382818,105.003906 52.6367188,105.136719 C52.5351557,105.269532 52.3906259,105.367187 52.203125,105.429688 L51.78125,105.335938 C51.6406243,105.585939 51.3828144,105.710938 51.0078125,105.710938 C50.914062,105.773438 50.7773446,105.89453 50.5976562,106.074219 C50.4179679,106.253907 50.2968753,106.34375 50.234375,106.34375 C50.1718747,106.34375 50.0078138,106.250001 49.7421875,106.0625 L49.6953125,106.0625 C49.5390617,106.0625 49.4609375,106.179686 49.4609375,106.414062 C49.4609375,106.648439 49.3164077,106.773437 49.0273438,106.789062 C48.7382798,106.804688 48.4687512,106.882812 48.21875,107.023438 L48.171875,107.023438 C47.8124982,107.023438 47.5546883,106.957032 47.3984375,106.824219 C47.2421867,106.691406 47.1015631,106.59375 46.9765625,106.53125 C46.4921851,106.687501 46.2343752,106.765625 46.203125,106.765625 C46.0156241,106.765625 45.8359384,106.687501 45.6640625,106.53125 L44.65625,106.015625 C44.5937497,105.96875 44.4843758,105.757814 44.328125,105.382812 L44.1875,105.195312 C43.6874975,105.101562 43.3515634,104.585942 43.1796875,103.648438 L42.9921875,103.085938 C42.9609373,103.054687 42.9453125,102.984376 42.9453125,102.875 C42.9453125,102.718749 43.0078119,102.48047 43.1328125,102.160156 C43.2578131,101.839842 43.3828119,101.410159 43.5078125,100.871094 C43.6328131,100.332029 43.890623,99.9921882 44.28125,99.8515625 L44.28125,99.8515625 Z M70.671875,104.1875 L69.5703125,105.148438 C69.5078122,105.085937 69.4453128,105.054688 69.3828125,105.054688 C69.2265617,105.054688 69.0351574,105.195311 68.8085938,105.476562 C68.5820301,105.757814 68.4218755,105.898438 68.328125,105.898438 L68.09375,105.851562 C67.703123,106.148439 67.4218759,106.320312 67.25,106.367188 C67.0781241,106.414063 66.871095,106.499999 66.6289062,106.625 C66.3867175,106.750001 66.1679697,106.820312 65.9726562,106.835938 C65.7773428,106.851563 65.6171881,106.917968 65.4921875,107.035156 C65.3671869,107.152344 65.0625024,107.210938 64.578125,107.210938 L64.203125,107.164062 C63.999999,107.257813 63.8671878,107.304688 63.8046875,107.304688 C63.6796869,107.304688 63.5468757,107.238282 63.40625,107.105469 C63.2656243,106.972656 63.1132821,106.898438 62.9492188,106.882812 C62.7851554,106.867187 62.6171884,106.757814 62.4453125,106.554688 C62.2734366,106.351561 62.113282,106.210938 61.9648438,106.132812 C61.8164055,106.054687 61.695313,105.945313 61.6015625,105.804688 L61.2734375,105.523438 C61.0078112,105.335937 60.7500012,104.99219 60.5,104.492188 C60.2499988,103.992185 60.125,103.601564 60.125,103.320312 L60.125,103.226562 L60.171875,102.78125 L60.125,102.265625 C60.1875003,102.203125 60.2656245,102.070314 60.359375,101.867188 L60.359375,101.117188 L60.921875,99.2421875 C60.9531252,99.1640621 60.8906258,99.0625006 60.734375,98.9375 C60.5781242,99.1718762 60.4218758,99.3124998 60.265625,99.359375 C60.1093742,99.4062502 60.0039065,99.5156241 59.9492188,99.6875 C59.894531,99.8593759 59.8046881,99.9453125 59.6796875,99.9453125 L59.3984375,99.8515625 C59.3671873,99.8828127 59.2968755,100.042967 59.1875,100.332031 C59.0781245,100.621095 58.8906263,100.765625 58.625,100.765625 C58.3437486,100.765625 58.203125,100.656251 58.203125,100.4375 L58.25,100.015625 L58.109375,99.4296875 C58.109375,99.3046869 58.2343738,99.0585956 58.484375,98.6914062 C58.7343762,98.3242169 58.9648427,98.1132815 59.1757812,98.0585938 C59.3867198,98.003906 59.5664055,97.85547 59.7148438,97.6132812 C59.863282,97.3710925 60.1874975,97.0781267 60.6875,96.734375 C60.9687514,96.6718747 61.2109365,96.4687517 61.4140625,96.125 C61.6328136,95.9531241 61.917967,95.8125005 62.2695312,95.703125 C62.6210955,95.5937495 62.8867179,95.4335948 63.0664062,95.2226562 C63.2460946,95.0117177 63.7773393,94.683596 64.6601562,94.2382812 C65.5429732,93.7929665 66.187498,93.5703125 66.59375,93.5703125 C66.7187506,93.5703125 66.8906239,93.5351566 67.109375,93.4648438 C67.3281261,93.3945309 67.5312491,93.3320315 67.71875,93.2773438 C67.9062509,93.222656 68.1015615,93.1367193 68.3046875,93.0195312 C68.5078135,92.9023432 68.6718744,92.84375 68.796875,92.84375 L69.4765625,93.078125 C69.976565,93.2187507 70.2812495,93.3203122 70.390625,93.3828125 C70.4218752,93.4140627 70.5820298,93.4804682 70.8710938,93.5820312 C71.1601577,93.6835943 71.4570297,93.8203116 71.7617188,93.9921875 C72.0664078,94.1640634 72.21875,94.4843727 72.21875,94.953125 C71.9531237,95.343752 71.8203125,95.5546873 71.8203125,95.5859375 C71.8203125,95.6484378 71.9999982,95.7421869 72.359375,95.8671875 C72.4843756,96.1015637 72.6718738,96.4062481 72.921875,96.78125 L73.1796875,97.6015625 L73.2265625,99.5234375 L73.1796875,99.7109375 C73.0078116,99.8671883 72.921875,99.9687498 72.921875,100.015625 L72.9921875,100.484375 L72.8046875,101.140625 C72.7578123,101.343751 72.679688,101.476562 72.5703125,101.539062 C72.460937,101.601563 72.3906252,101.679687 72.359375,101.773438 L72.21875,101.960938 C72.1874998,102.007813 72.1210943,102.14453 72.0195312,102.371094 C71.9179682,102.597657 71.8046881,102.773437 71.6796875,102.898438 C71.5546869,103.023438 71.4765627,103.171874 71.4453125,103.34375 C71.4140623,103.515626 71.3359381,103.640625 71.2109375,103.71875 C71.0859369,103.796875 70.996094,103.878906 70.9414062,103.964844 C70.8867185,104.050782 70.7968756,104.125 70.671875,104.1875 L70.671875,104.1875 Z M63.3828125,104.796875 L63.4765625,105.335938 L63.5234375,105.382812 L63.8984375,105.382812 L64.015625,105.429688 C64.3281266,105.492188 64.5624992,105.523438 64.71875,105.523438 C65.2031274,105.523438 65.5898423,105.402345 65.8789062,105.160156 C66.1679702,104.917968 66.3984366,104.796875 66.5703125,104.796875 C66.7421884,104.796875 66.8867182,104.679689 67.0039062,104.445312 C67.1210943,104.210936 67.1953123,104.09375 67.2265625,104.09375 L67.5546875,104.09375 L67.6484375,104.046875 C67.6484375,103.687498 67.8085921,103.429688 68.1289062,103.273438 C68.4492204,103.117187 68.6757806,102.910158 68.8085938,102.652344 C68.9414069,102.39453 69.0937491,102.199219 69.265625,102.066406 C69.4375009,101.933593 69.5546872,101.757814 69.6171875,101.539062 L69.8046875,101.257812 C69.8671878,101.195312 69.8984375,101.078126 69.8984375,100.90625 L70.34375,100.0625 C70.4375005,99.671873 70.484375,99.3671886 70.484375,99.1484375 C70.484375,98.8203109 70.3164079,98.5625009 69.9804688,98.375 C69.6445296,98.1874991 69.4765625,97.8203152 69.4765625,97.2734375 C69.4765625,96.9140607 69.6601544,96.5820328 70.0273438,96.2773438 C70.3945331,95.9726547 70.578125,95.7890628 70.578125,95.7265625 C70.578125,95.632812 70.5312505,95.5859375 70.4375,95.5859375 C70.3906248,95.5859375 70.2109391,95.6484369 69.8984375,95.7734375 C69.789062,95.9921886 69.23438,96.2812482 68.234375,96.640625 C67.9062484,96.4843742 67.7265627,96.40625 67.6953125,96.40625 C67.601562,96.40625 67.507813,96.4999991 67.4140625,96.6875 C67.320312,96.8750009 67.226563,97.0078121 67.1328125,97.0859375 L66.828125,97.0859375 C66.7968748,97.0859375 66.6953134,97.187499 66.5234375,97.390625 C66.3515616,97.593751 66.1328138,97.6953125 65.8671875,97.6953125 L65.5859375,97.9765625 C65.6015626,98.2265637 65.4453141,98.4843737 65.1171875,98.75 L64.859375,99.0546875 C64.7031242,99.2421884 64.5000012,99.4609363 64.25,99.7109375 L63.828125,100.765625 C63.6562491,101.171877 63.5703125,101.476561 63.5703125,101.679688 C63.5234373,101.773438 63.4179696,101.871093 63.2539062,101.972656 C63.0898429,102.074219 63.0078125,102.203124 63.0078125,102.359375 C63.0078125,102.390625 63.0624995,102.468749 63.171875,102.59375 C63.2812505,102.718751 63.3359375,102.8125 63.3359375,102.875 L63.2421875,103.179688 L63.1484375,104.046875 L63.3828125,104.796875 Z M85.4140625,95.984375 L86.0703125,95.6796875 C86.2890636,95.5390618 86.499999,95.3359388 86.703125,95.0703125 L87.5234375,94.484375 C87.9921898,94.1718734 88.2968743,94.015625 88.4375,94.015625 L88.8125,94.15625 C88.8437502,94.15625 88.9414054,94.0585947 89.1054688,93.8632812 C89.2695321,93.6679678 89.4609364,93.5703125 89.6796875,93.5703125 C89.9609389,93.5703125 90.3437476,93.7812479 90.828125,94.203125 C91.3125024,94.6250021 91.5546875,94.9999984 91.5546875,95.328125 L91.4609375,96.125 C91.4609375,96.2500006 91.5234369,96.6015596 91.6484375,97.1796875 L91.6484375,97.3671875 L91.5546875,97.9296875 L91.6484375,98.515625 L91.390625,99.6640625 C91.390625,99.960939 91.4921865,100.109375 91.6953125,100.109375 C91.9609388,99.8593738 92.1874991,99.7109377 92.375,99.6640625 L92.703125,99.3359375 C92.8281256,99.2109369 92.9218747,99.1484375 92.984375,99.1484375 C93.0468753,99.1484375 93.1289057,99.0742195 93.2304688,98.9257812 C93.3320318,98.777343 93.4609367,98.6718753 93.6171875,98.609375 C93.7734383,98.5468747 93.8828122,98.4375008 93.9453125,98.28125 C94.8203169,97.3281202 95.4921852,96.7812507 95.9609375,96.640625 C96.0234378,96.640625 96.1289055,96.5625008 96.2773438,96.40625 C96.425782,96.2499992 96.5468745,96.1562502 96.640625,96.125 L97.15625,95.7265625 L97.3671875,95.8203125 L97.4140625,95.8203125 C97.4453127,95.8203125 97.5703114,95.7421883 97.7890625,95.5859375 C98.0078136,95.4296867 98.164062,95.3515625 98.2578125,95.3515625 C98.8515655,95.3515625 99.3398418,95.5507793 99.7226562,95.9492188 C100.105471,96.3476582 100.296875,96.6562489 100.296875,96.875 L100.179688,97.4140625 L100.34375,98.140625 L100.34375,98.609375 L100.226562,99.1015625 C100.226562,99.195313 100.292968,99.3281241 100.425781,99.5 C100.558594,99.6718759 100.625,99.7890622 100.625,99.8515625 C100.437499,100.054689 100.34375,100.1875 100.34375,100.25 L100.390625,100.671875 L100.273438,101.960938 C100.273438,102.070313 100.374999,102.249999 100.578125,102.5 C100.671875,102.4375 100.804687,102.382813 100.976562,102.335938 C101.148438,102.289062 101.28125,102.238282 101.375,102.183594 C101.46875,102.128906 101.515625,102.097656 101.515625,102.089844 C101.515625,102.082031 101.507813,102.078125 101.492188,102.078125 C101.523438,102.078125 101.617187,102.109375 101.773438,102.171875 L101.867188,102.171875 C101.992188,102.171875 102.0625,102.050782 102.078125,101.808594 C102.09375,101.566405 102.249999,101.367188 102.546875,101.210938 L103.109375,101.257812 C103.140625,101.226562 103.207031,101.097657 103.308594,100.871094 C103.410157,100.64453 103.738278,100.308596 104.292969,99.8632812 C104.847659,99.4179665 105.273436,99.1953125 105.570312,99.1953125 C105.820314,99.1953125 105.945312,99.3046864 105.945312,99.5234375 C105.945312,99.5859378 105.914063,99.7499987 105.851562,100.015625 C105.976563,100.234376 106.039062,100.421874 106.039062,100.578125 C106.039062,100.875001 105.785159,101.195311 105.277344,101.539062 C104.769529,101.882814 104.382814,102.312497 104.117188,102.828125 L104.023438,102.921875 L103.554688,102.875 C103.523437,102.875 103.449219,102.996093 103.332031,103.238281 C103.214843,103.48047 103.078126,103.617187 102.921875,103.648438 C102.765624,103.679688 102.65625,103.726562 102.59375,103.789062 L102.101562,104.09375 C102.007812,104.15625 101.699221,104.472653 101.175781,105.042969 C100.652341,105.613284 100.210939,105.898438 99.8515625,105.898438 C99.6953117,105.898438 99.4140645,105.816407 99.0078125,105.652344 C98.6015605,105.48828 98.3281257,105.320313 98.1875,105.148438 C98.0468743,104.976562 97.8476575,104.781251 97.5898438,104.5625 C97.33203,104.343749 97.203125,103.929691 97.203125,103.320312 C97.203125,103.289062 97.2460933,103.234375 97.3320312,103.15625 C97.4179692,103.078125 97.4609375,103.015625 97.4609375,102.96875 C97.1015607,102.499998 96.921875,102.164064 96.921875,101.960938 C96.921875,101.867187 96.9374998,101.765626 96.96875,101.65625 C97.0000002,101.546874 97.015625,101.445313 97.015625,101.351562 L96.96875,100.53125 L97.0625,100.109375 L97.015625,99.8515625 L97.15625,98.65625 C97.15625,98.4687491 97.0468761,98.375 96.828125,98.375 C96.7656247,98.375 96.679688,98.4374994 96.5703125,98.5625 C96.460937,98.6875006 96.3242196,98.7851559 96.1601562,98.8554688 C95.9960929,98.9257816 95.8203134,99.1484356 95.6328125,99.5234375 C95.3515611,99.6796883 95.1601568,99.8320305 95.0585938,99.9804688 C94.9570307,100.128907 94.8750003,100.203125 94.8125,100.203125 C94.7812498,100.203125 94.7187505,100.1875 94.625,100.15625 C94.4374991,100.281251 94.34375,100.421874 94.34375,100.578125 L94.34375,100.671875 L94.390625,100.859375 C94.390625,101.000001 94.2734387,101.132812 94.0390625,101.257812 C93.8046863,101.382813 93.5156267,101.703122 93.171875,102.21875 C93.0156242,102.21875 92.9062503,102.234375 92.84375,102.265625 L92.5625,102.828125 C92.4062492,102.921875 92.2578132,103.085936 92.1171875,103.320312 L91.8359375,103.460938 C91.726562,103.664064 91.617188,103.835937 91.5078125,103.976562 L91.3671875,104.234375 C90.6953091,105.031254 90.2265638,105.429688 89.9609375,105.429688 C89.6953112,105.429688 89.3750019,105.078129 89,104.375 C88.6249981,103.671871 88.4375,103.125002 88.4375,102.734375 L88.53125,101.867188 C88.53125,101.835937 88.4687506,101.710939 88.34375,101.492188 L88.34375,101.398438 C88.34375,101.367187 88.4062494,101.187502 88.53125,100.859375 L88.53125,100.15625 C88.53125,100.125 88.5156252,100.078125 88.484375,100.015625 L88.484375,99.8984375 C88.484375,99.8671873 88.5468744,99.7421886 88.671875,99.5234375 L88.53125,98.84375 L88.625,98.46875 L88.578125,97.6484375 L88.671875,96.921875 C88.671875,96.8749998 88.6289067,96.7929693 88.5429688,96.6757812 C88.4570308,96.5585932 88.3984377,96.5 88.3671875,96.5 C88.257812,96.5 87.9335964,96.6796857 87.3945312,97.0390625 C86.8554661,97.3984393 86.4921884,97.6796865 86.3046875,97.8828125 C86.1171866,98.0859385 85.8671891,98.3281236 85.5546875,98.609375 C85.2265609,98.7656258 85.0000006,99.1640593 84.875,99.8046875 C84.875,99.8359377 84.8437503,99.8515625 84.78125,99.8515625 C84.78125,99.8203123 84.7343755,99.7890627 84.640625,99.7578125 L84.546875,99.7578125 C84.4687496,99.7578125 84.2265645,100.093747 83.8203125,100.765625 L83.7265625,100.859375 L83.28125,100.765625 C82.9062481,100.765625 82.71875,101.164059 82.71875,101.960938 C82.71875,102.101563 82.6210947,102.195312 82.4257812,102.242188 C82.2304678,102.289063 82.0781255,102.421874 81.96875,102.640625 C81.8593745,102.859376 81.7109384,103.085936 81.5234375,103.320312 C81.1640607,103.476563 80.9609377,103.59375 80.9140625,103.671875 C80.9140625,103.6875 80.7421892,103.921873 80.3984375,104.375 C80.0546858,104.828127 79.8671877,105.09375 79.8359375,105.171875 C79.8046873,105.25 79.6992196,105.339843 79.5195312,105.441406 C79.3398429,105.542969 79.25,105.632812 79.25,105.710938 L79.3203125,106.109375 C79.3203125,106.359376 79.0781274,106.484375 78.59375,106.484375 C77.6562453,106.484375 77.1875,105.507822 77.1875,103.554688 C77.1875,103.335936 77.2851553,103.089845 77.4804688,102.816406 C77.6757822,102.542967 77.8671866,102.210939 78.0546875,101.820312 C78.351564,101.523436 78.703123,101.093753 79.109375,100.53125 C79.515627,99.9687472 79.8203115,99.5859385 80.0234375,99.3828125 L80.328125,98.890625 C80.328125,98.7031241 80.3671871,98.5625005 80.4453125,98.46875 C80.5234379,98.3749995 80.5625,98.2578132 80.5625,98.1171875 C80.5625,97.8671863 80.5000006,97.7421875 80.375,97.7421875 C80.0781235,97.7421875 79.8437509,97.8164055 79.671875,97.9648438 C79.4999991,98.113282 79.3085948,98.2187497 79.0976562,98.28125 C78.8867177,98.3437503 78.7500003,98.4531242 78.6875,98.609375 C78.4687489,98.7031255 78.2382825,98.9023422 77.9960938,99.2070312 C77.753905,99.5117203 77.5937504,99.7031246 77.515625,99.78125 C77.4374996,99.8593754 77.3632816,99.9648431 77.2929688,100.097656 C77.2226559,100.230469 77.132813,100.304687 77.0234375,100.320312 C76.914062,100.335938 76.8125005,100.390625 76.71875,100.484375 C76.6249995,100.578125 76.4765635,100.625 76.2734375,100.625 C76.1328118,100.625 76.0039068,100.48047 75.8867188,100.191406 C75.7695307,99.9023423 75.7109375,99.7265628 75.7109375,99.6640625 C75.7109375,98.5234318 76.4687424,97.5390666 77.984375,96.7109375 C78.187501,96.601562 78.3476557,96.492188 78.4648438,96.3828125 C78.5820318,96.273437 78.7031244,96.1875003 78.828125,96.125 L78.921875,95.9609375 C79.0468756,95.7734366 79.5156209,95.5078142 80.328125,95.1640625 L80.65625,95.1640625 L82.2265625,94.765625 C82.8984409,94.6093742 83.234375,95.3671791 83.234375,97.0390625 L83.1875,97.4609375 L83.28125,97.6484375 C83.5468763,97.3984363 83.8164049,97.1757822 84.0898438,96.9804688 C84.3632826,96.7851553 84.5624994,96.6093758 84.6875,96.453125 C84.8125006,96.2968742 85.0546857,96.1406258 85.4140625,95.984375 L85.4140625,95.984375 Z" id=".com" stroke="#F993C2" fill="#FFFFFF" transform="translate(69.488281, 100.789062) rotate(-8.000000) translate(-69.488281, -100.789062) "></path>
        </g>
    </g>
</svg>